<svg width="131" height="30" viewBox="0 0 131 30" fill="none" xmlns="http://www.w3.org/2000/svg">
<path d="M69.1252 0.16002C69.2663 0.11321 69.4909 0.0507962 69.6215 0.0299918C69.7522 0.00398617 70.1492 -0.00641606 70.5097 0.00398617C70.8702 0.0143884 71.236 0.0455951 71.3196 0.0716007C71.4241 0.102807 71.4815 0.154819 71.4868 0.227634C71.5024 0.326456 71.4763 0.342059 71.3196 0.342059C71.2203 0.342059 71.0583 0.373266 70.9643 0.409673C70.8755 0.451282 70.6926 0.596914 70.5672 0.737344C70.4418 0.877774 70.259 1.16904 70.1597 1.38228C70.0604 1.59553 69.8514 2.12084 69.6999 2.55253C69.5484 2.97903 69.3499 3.50954 69.2663 3.72279C69.1774 3.93603 69.0416 4.23249 68.9632 4.37293C68.8849 4.51856 68.7333 4.75261 68.6289 4.89304C68.5244 5.03867 68.3206 5.25191 68.1795 5.37674C68.0385 5.50157 67.8295 5.6576 67.7145 5.72002C67.5996 5.78243 67.3593 5.88645 67.1764 5.94886C66.9987 6.01128 66.68 6.08929 66.4763 6.1205C66.2516 6.15691 65.8702 6.16731 65.5463 6.14651C65.2433 6.1309 64.9298 6.0945 64.8409 6.07369C64.7521 6.04769 64.679 5.99047 64.6685 5.94366C64.6633 5.88645 64.6947 5.85524 64.7469 5.85524C64.7992 5.85524 64.9559 5.81884 65.1022 5.76683C65.2763 5.70788 65.4418 5.59692 65.5985 5.43395C65.7291 5.29872 65.9172 5.01266 66.027 4.78381C66.1314 4.55496 66.2777 4.21169 66.3457 4.00885C66.4136 3.806 66.5599 3.40032 66.6696 3.09865C66.7793 2.79699 66.9622 2.36529 67.0771 2.13644C67.1921 1.9076 67.3802 1.57993 67.5055 1.40829C67.6257 1.23665 67.8504 0.981796 68.0071 0.836165C68.1639 0.695735 68.4199 0.503294 68.5766 0.409673C68.7333 0.321254 68.9789 0.20683 69.1252 0.16002Z" fill="#FFB6A9"/>
<path d="M71.8213 9.28613C72.4425 10.9278 73.0303 12.5141 73.585 14.0449C74.1618 15.5759 74.7165 17.0627 75.249 18.5049C75.7815 19.9249 76.3142 21.3337 76.8467 22.7314C77.0907 23.4192 77.313 23.996 77.5127 24.4619C77.7346 24.9056 77.9779 25.4163 78.2441 25.9932C78.2885 26.0819 78.3887 26.2372 78.5439 26.459C78.6993 26.6809 78.8995 26.9141 79.1436 27.1582C79.4097 27.38 79.7314 27.5794 80.1084 27.7568C80.4856 27.9343 80.9292 28.0344 81.4395 28.0566V28.4561H71.7217V28.123C71.7884 28.123 71.9438 28.1009 72.1875 28.0566C72.4537 28.0123 72.7201 27.9342 72.9863 27.8232C73.2746 27.7123 73.5182 27.557 73.7178 27.3574C73.9397 27.1577 74.0508 26.9024 74.0508 26.5918C74.0507 26.3921 73.9846 26.0704 73.8516 25.627C73.7406 25.161 73.5744 24.6063 73.3525 23.9629C73.1307 23.2973 72.8753 22.5653 72.5869 21.7666C72.2985 20.968 71.988 20.1357 71.6553 19.2705H62.8018C62.469 20.1135 62.1475 20.9237 61.8369 21.7002C61.5264 22.4544 61.2158 23.2197 60.9053 23.9961C60.4394 25.194 60.2061 26.0372 60.2061 26.5254C60.2061 26.8137 60.2943 27.0582 60.4717 27.2578C60.6492 27.4353 60.8715 27.5905 61.1377 27.7236C61.4261 27.8345 61.7256 27.9237 62.0361 27.9902C62.3689 28.0346 62.6803 28.0787 62.9688 28.123V28.4561H34.5117V28.123C35.0663 28.0343 35.6102 27.8901 36.1426 27.6904C36.6973 27.4907 37.1308 27.2134 37.4414 26.8584C37.5522 26.7253 37.6405 26.5367 37.707 26.293C37.7957 26.0268 37.8629 25.7272 37.9072 25.3945C37.9516 25.0617 37.9846 24.7173 38.0068 24.3623C38.0512 23.9851 38.0732 23.6187 38.0732 23.2637V21.999C38.0954 21.4666 38.1064 20.8897 38.1064 20.2686C38.1286 19.6252 38.1396 18.9703 38.1396 18.3047V8.75293C38.1396 8.35379 38.1176 7.98792 38.0732 7.65527C38.0511 7.30027 38.007 6.98891 37.9404 6.72266C37.8739 6.45658 37.7737 6.24607 37.6406 6.09082C37.33 5.71365 36.9084 5.42527 36.376 5.22559C35.8657 5.0259 35.322 4.89274 34.7451 4.82617V4.49316H45.3623V4.82617C45.0739 4.87055 44.7295 4.93664 44.3301 5.02539C43.9307 5.11414 43.5532 5.25834 43.1982 5.45801C42.8434 5.65766 42.5328 5.94621 42.2666 6.32324C42.0225 6.67825 41.8894 7.15581 41.8672 7.75488C41.845 8.5314 41.823 9.24136 41.8008 9.88477C41.8008 10.5282 41.7898 11.161 41.7676 11.7822V21.5664C41.7898 22.1654 41.8008 22.8424 41.8008 23.5967C41.823 24.3067 41.845 24.9835 41.8672 25.627C41.9116 26.2704 42.0337 26.748 42.2334 27.0586C42.3221 27.1694 42.4998 27.2798 42.7656 27.3906C43.0319 27.5016 43.3543 27.6017 43.7314 27.6904C44.1086 27.757 44.5192 27.8241 44.9629 27.8906C45.4065 27.935 45.8503 27.957 46.2939 27.957H47.126C47.5253 27.9348 47.9579 27.9128 48.4238 27.8906C48.8898 27.8462 49.3673 27.7902 49.8555 27.7236C50.3434 27.6571 50.7762 27.5689 51.1533 27.458C52.0408 27.2139 52.7728 26.8915 53.3496 26.4922C53.9486 26.0928 54.4593 25.6382 54.8809 25.1279C55.3023 24.5955 55.6569 24.0296 55.9453 23.4307C56.2338 22.8094 56.5111 22.1656 56.7773 21.5L57.1104 21.5996L55.9463 28.0801C56.494 28.0095 56.96 27.8586 57.3438 27.624C57.7652 27.38 58.0096 27.2138 58.0762 27.125C58.2315 26.9697 58.4868 26.6032 58.8418 26.0264C59.1968 25.4495 59.6294 24.5953 60.1396 23.4639C60.6056 22.421 61.1262 21.2336 61.7031 19.9023C62.28 18.5711 62.8687 17.2064 63.4678 15.8086C64.089 14.3887 64.6988 12.9687 65.2979 11.5488C65.8969 10.1066 66.4626 8.764 66.9951 7.52148L66.6719 6.8125C66.7877 6.80643 66.893 6.79771 66.9766 6.78418C67.1802 6.75299 67.499 6.67567 67.6768 6.61328C67.8596 6.55089 68.0998 6.44621 68.2148 6.38379C68.3298 6.32138 68.5396 6.16584 68.6807 6.04102C68.8217 5.9162 69.0254 5.70318 69.1299 5.55762C69.2344 5.4172 69.3855 5.18274 69.4639 5.03711C69.5422 4.89668 69.6778 4.59996 69.7666 4.38672C69.7942 4.31638 69.8331 4.21113 69.8799 4.08691C70.5596 5.9067 71.2067 7.64004 71.8213 9.28613ZM120.606 9.28613C121.228 10.9278 121.815 12.5141 122.37 14.0449C122.947 15.5759 123.502 17.0627 124.034 18.5049C124.567 19.9249 125.099 21.3337 125.632 22.7314C125.876 23.4191 126.097 23.996 126.297 24.4619C126.519 24.9057 126.763 25.4163 127.029 25.9932C127.074 26.0819 127.174 26.2371 127.329 26.459C127.484 26.6808 127.684 26.9142 127.928 27.1582C128.194 27.3801 128.516 27.5793 128.894 27.7568C129.271 27.9343 129.714 28.0345 130.225 28.0566V28.4561H120.506V28.123C120.572 28.123 120.729 28.101 120.973 28.0566C121.239 28.0123 121.505 27.9341 121.771 27.8232C122.06 27.7123 122.303 27.557 122.503 27.3574C122.725 27.1577 122.836 26.9024 122.836 26.5918C122.836 26.3921 122.77 26.0704 122.637 25.627C122.526 25.161 122.359 24.6063 122.137 23.9629C121.915 23.2974 121.66 22.5652 121.372 21.7666C121.084 20.9679 120.772 20.1358 120.439 19.2705H111.587C111.254 20.1136 110.933 20.9237 110.622 21.7002C110.311 22.4545 110 23.2196 109.689 23.9961C109.224 25.194 108.991 26.0372 108.991 26.5254C108.991 26.8138 109.079 27.0581 109.257 27.2578C109.434 27.4353 109.657 27.5905 109.923 27.7236C110.211 27.8346 110.511 27.9237 110.821 27.9902C111.154 28.0346 111.465 28.0787 111.753 28.123V28.4561H100.081C99.8816 28.2566 99.7372 28.1122 99.6484 28.0234C99.5597 27.9125 99.4596 27.7903 99.3486 27.6572C99.2377 27.5242 99.0934 27.3357 98.916 27.0918C98.7607 26.8256 98.5053 26.437 98.1504 25.9268C97.7288 25.3055 97.3514 24.7508 97.0186 24.2627C96.7079 23.7524 96.3865 23.2528 96.0537 22.7646C95.7209 22.2766 95.3544 21.7889 94.9551 21.3008C94.5779 20.7905 94.1232 20.2247 93.5908 19.6035C93.1471 19.0932 92.6585 18.6156 92.126 18.1719C91.6157 17.7283 91.0719 17.4508 90.4951 17.3398C90.0738 17.2512 89.7521 17.207 89.5303 17.207C89.3306 17.207 89.0752 17.196 88.7646 17.1738V20.9346C88.7647 21.9993 88.7757 22.8978 88.7979 23.6299C88.82 24.3399 88.843 24.9506 88.8652 25.4609C88.8875 25.9711 89.0086 26.3928 89.2305 26.7256C89.408 27.014 89.7524 27.3134 90.2627 27.624C90.773 27.9124 91.483 28.0787 92.3926 28.123V28.4561H81.7422V28.123C82.2968 28.0343 82.8296 27.9011 83.3398 27.7236C83.8502 27.5461 84.2496 27.2798 84.5381 26.9248C84.649 26.7917 84.7381 26.5923 84.8047 26.3262C84.8712 26.06 84.9153 25.7604 84.9375 25.4277C84.9819 25.0949 85.0149 24.7395 85.0371 24.3623C85.0593 23.9851 85.0703 23.6187 85.0703 23.2637V21.999C85.0925 21.4666 85.1035 20.8897 85.1035 20.2686C85.1257 19.6251 85.1377 18.9703 85.1377 18.3047V9.88477C85.1377 9.4854 85.1257 9.08589 85.1035 8.68652C85.1035 8.26501 85.0815 7.87645 85.0371 7.52148C85.0149 7.14448 84.9598 6.81177 84.8711 6.52344C84.8045 6.21281 84.7044 5.99055 84.5713 5.85742C84.2385 5.50256 83.8609 5.27009 83.4395 5.15918C83.0402 5.02611 82.5412 4.9149 81.9424 4.82617V4.49316H85.8691C86.8231 4.47098 87.7774 4.45996 88.7314 4.45996H91.0615C92.5479 4.45996 93.8679 4.50405 95.0215 4.59277C96.1752 4.68152 97.2296 4.98097 98.1836 5.49121C99.1598 6.00149 99.9478 6.70049 100.547 7.58789C101.146 8.45312 101.445 9.55175 101.445 10.8828C101.445 11.7038 101.29 12.4476 100.979 13.1133C100.691 13.7567 100.292 14.3335 99.7812 14.8438C99.2932 15.3318 98.7163 15.7534 98.0508 16.1084C97.3853 16.4633 96.6862 16.7628 95.9541 17.0068V17.1074C96.3311 17.3071 96.6969 17.5956 97.0518 17.9727C97.4067 18.3498 97.7512 18.7714 98.084 19.2373C98.6607 20.0803 99.2818 20.9898 99.9473 21.9658C100.635 22.9421 101.246 23.8081 101.778 24.5625C102.599 25.716 103.398 26.5594 104.175 27.0918C104.635 27.4073 105.143 27.6548 105.696 27.8379C105.85 27.776 105.995 27.7059 106.129 27.624C106.55 27.3804 106.793 27.2138 106.86 27.125C107.016 26.9697 107.271 26.6032 107.626 26.0264C107.981 25.4495 108.414 24.5953 108.924 23.4639C109.39 22.421 109.911 21.2336 110.488 19.9023C111.065 18.5711 111.654 17.2064 112.253 15.8086C112.874 14.3887 113.484 12.9687 114.083 11.5488C114.682 10.1067 115.248 8.76398 115.78 7.52148L115.456 6.81055C115.562 6.80439 115.657 6.79668 115.734 6.78418C115.938 6.75299 116.257 6.67568 116.435 6.61328C116.617 6.55087 116.858 6.4462 116.973 6.38379C117.088 6.32142 117.296 6.1658 117.438 6.04102C117.578 5.91633 117.782 5.70324 117.887 5.55762C117.991 5.41719 118.143 5.18274 118.222 5.03711C118.3 4.89667 118.436 4.59996 118.524 4.38672C118.555 4.30964 118.599 4.19078 118.651 4.05078C119.336 5.88376 119.988 7.62915 120.606 9.28613ZM67.3613 8.28711C67.2282 8.57547 67.0288 9.03037 66.7627 9.65137C66.5186 10.2726 66.2073 11.0275 65.8301 11.915C65.4529 12.8025 65.0313 13.8119 64.5654 14.9434C64.1217 16.0527 63.6341 17.2622 63.1016 18.5713H71.3887C71.0115 17.5729 70.623 16.5746 70.2236 15.5762C69.8464 14.5777 69.469 13.6236 69.0918 12.7139C68.7368 11.7821 68.4044 10.9389 68.0938 10.1846C67.8053 9.408 67.561 8.77524 67.3613 8.28711ZM116.146 8.28711C116.013 8.57551 115.813 9.03023 115.547 9.65137C115.303 10.2726 114.992 11.0275 114.615 11.915C114.238 12.8025 113.816 13.8119 113.351 14.9434C112.907 16.0527 112.419 17.2623 111.887 18.5713H120.174C119.797 17.5729 119.408 16.5745 119.009 15.5762C118.632 14.5777 118.254 13.6235 117.877 12.7139C117.522 11.7821 117.189 10.9389 116.879 10.1846C116.59 9.408 116.346 8.77524 116.146 8.28711ZM90.8281 4.95898C90.3626 4.95899 89.9856 4.97003 89.6973 4.99219C89.4089 5.01437 89.1866 5.03641 89.0312 5.05859C89.0091 5.1916 88.987 5.31394 88.9648 5.4248C88.9427 5.51352 88.9206 5.6358 88.8984 5.79102C88.8984 5.94633 88.8874 6.16859 88.8652 6.45703C88.8652 6.72328 88.8532 7.1119 88.8311 7.62207C88.8089 8.39854 88.7868 9.27489 88.7646 10.251V16.7412C89.6742 16.7412 90.5175 16.7072 91.2939 16.6406C92.0927 16.5519 92.8586 16.3857 93.5908 16.1416C94.3007 15.9198 94.9106 15.6203 95.4209 15.2432C95.9311 14.866 96.3417 14.4444 96.6523 13.9785C96.9852 13.4904 97.2295 12.9688 97.3848 12.4141C97.5401 11.8594 97.6182 11.2826 97.6182 10.6836C97.6182 9.57432 97.3407 8.58694 96.7861 7.72168C96.2315 6.85641 95.4214 6.16851 94.3564 5.6582C93.824 5.41419 93.2581 5.23692 92.6592 5.12598C92.0823 5.01504 91.4716 4.95898 90.8281 4.95898Z" fill="#582B00"/>
<path d="M11.0762 2.75195C10.9521 2.91121 10.8424 3.05984 10.7617 3.18262C10.5047 3.5839 10.1547 4.25294 9.99023 4.6748C9.8155 5.09664 9.58913 5.79596 9.48633 6.21777C9.35268 6.7734 9.31152 7.38083 9.31152 8.37891C9.31153 9.21231 9.38353 10.1387 9.48633 10.6943C9.57882 11.1986 9.66113 12.0628 9.66113 12.5977C9.66111 13.1326 9.58955 13.9039 9.49707 14.2949C9.41485 14.6961 9.21962 15.2416 9.06543 15.5195C8.91123 15.7973 8.59243 16.1887 8.3457 16.3945C8.09898 16.6003 7.90283 16.8264 7.91309 16.8984C7.91312 16.9602 7.97544 17.1353 8.03711 17.2793C8.11943 17.4336 8.31449 17.5882 8.53027 17.6602C8.72561 17.7219 8.9933 17.8658 9.12695 17.9893C9.25016 18.1024 9.35245 18.2771 9.35254 18.3594C9.35254 18.4417 9.22935 18.6683 9.0957 18.8535C8.95186 19.0284 8.83892 19.3266 8.83887 19.4912C8.83887 19.6558 8.91094 19.8717 8.99316 19.9541C9.07534 20.0363 9.23946 20.1292 9.35254 20.1602C9.49639 20.2013 9.53761 20.2629 9.48633 20.3965C9.45549 20.4891 9.40389 20.7162 9.37305 20.8809C9.34237 21.0864 9.39384 21.2409 9.50684 21.3438C9.60966 21.4261 9.87737 21.59 10.1035 21.7031C10.34 21.8163 10.6072 22.0229 10.71 22.167C10.8127 22.3113 10.9462 22.7017 10.9873 23.041C11.0387 23.3806 11.1214 23.7409 11.1729 23.8438C11.2141 23.9466 11.4191 24.0808 11.6143 24.1426C11.8095 24.2043 12.2004 24.2247 12.4883 24.1836C12.7658 24.1527 13.2799 24.0292 13.6191 23.916C13.9583 23.8029 14.5133 23.5451 14.8525 23.3496C15.4385 22.9998 15.4801 22.9901 15.6035 23.165C15.686 23.2685 15.9429 23.7726 16.1895 24.2764C16.4259 24.7805 16.6829 25.4391 16.7549 25.7168C16.8165 26.005 16.8682 26.5812 16.8682 27.0029C16.8681 27.4248 16.7756 28.1241 16.6729 28.5459C16.5959 28.8331 16.4212 29.3102 16.2314 29.7744C15.4275 29.9207 14.5991 29.998 13.7529 29.998C6.15737 29.9979 0 23.8397 0 16.2441C0.000211221 9.56468 4.76207 3.99766 11.0762 2.75195ZM14.0596 2.49609C21.5137 2.65899 27.5066 8.751 27.5068 16.2441C27.5068 22.0511 23.9073 27.0171 18.8184 29.0342C18.8225 29.0254 18.8281 29.0172 18.832 29.0088C18.9759 28.731 19.1916 28.1964 19.3047 27.8262C19.4178 27.4558 19.5409 26.8378 19.582 26.4365C19.6129 26.0353 19.6027 25.3462 19.541 24.8936C19.4793 24.4408 19.3148 23.6789 19.1709 23.1953C19.0269 22.7117 18.6366 21.765 18.3076 21.0859C17.9786 20.4068 17.2378 19.0176 16.6621 17.999C16.0864 16.9804 15.1411 15.2007 14.5654 14.0381C13.9898 12.8755 13.3419 11.4246 13.126 10.7969C12.9204 10.1692 12.6731 9.33533 12.5908 8.94434C12.5086 8.5532 12.4375 7.76103 12.4375 7.19531C12.4375 6.62957 12.5091 5.86855 12.6016 5.49805C12.6838 5.12769 12.8795 4.55149 13.0234 4.21191C13.1776 3.87244 13.4648 3.33704 13.6807 3.02832C13.7779 2.88239 13.9147 2.69053 14.0596 2.49609Z" fill="#FFB6A9"/>
</svg>
